<svg height="512pt" viewBox="0 0 512 512" width="512pt" xmlns="http://www.w3.org/2000/svg">
	<path d="m416 512h-320c-53.023438 0-96-42.976562-96-96v-320c0-53.023438 42.976562-96 96-96h320c53.023438 0 96 42.976562 96 96v320c0 53.023438-42.976562 96-96 96zm0 0" fill="#51b551" />
	<path d="m277.328125 181.328125c0 29.453125-23.875 53.328125-53.328125 53.328125s-53.328125-23.875-53.328125-53.328125 23.875-53.328125 53.328125-53.328125 53.328125 23.875 53.328125 53.328125zm0 0" fill="white" />
	<path d="m229.328125 314.671875c0-22.71875 8.992187-43.359375 23.519531-58.671875h-74.191406c-27.921875 0-50.65625 22.734375-50.65625 50.671875v37.328125c0 4.414062 3.585938 8 8 8h102.046875c-5.519531-11.296875-8.71875-23.9375-8.71875-37.328125zm0 0" fill="white" />
	<path d="m314.671875 245.328125c-38.222656 0-69.328125 31.105469-69.328125 69.328125s31.089844 69.34375 69.328125 69.34375 69.328125-31.105469 69.328125-69.328125-31.105469-69.34375-69.328125-69.34375zm23.535156 92.878906c-2.078125 2.082031-4.816406 3.121094-7.535156 3.121094-2.734375 0-5.457031-1.039063-7.535156-3.121094l-16-16c-2.015625-2-3.136719-4.703125-3.136719-7.535156v-26.671875c0-5.886719 4.785156-10.671875 10.671875-10.671875s10.671875 4.769531 10.671875 10.671875v22.257812l12.878906 12.878907c4.144532 4.160156 4.144532 10.910156-.015625 15.070312zm0 0" fill="white" />
</svg>
